<svg xmlns="http://www.w3.org/2000/svg" viewBox="0 0 512 512">
  <g fill="none" stroke="currentColor" stroke-width="24" stroke-linecap="round" stroke-linejoin="round">
    <path d="M256 468.5s-34-28.5-68-57c-109-93-156-144-156-219.5C32 104 91 48 164 48c43 0 83 23 104 62 21-39 61-62 104-62 73 0 132 56 132 144 0 75.5-47 126.5-156 219.5-34 28.5-68 57-68 57Z" />
    <path d="M180 118c-8-19-28-32-52-32-31 0-56 23-56 52 0 14 6 27 16 36" />
    <path d="M228 80c0-24.5-19.5-44-44-44-16 0-30 8.5-38 21" />
    <path d="M312 104h84" />
    <path d="M308 152h96" />
    <path d="M404 152v-24c0-26.5-21.5-48-48-48h-12c-26.5 0-48 21.5-48 48v24" />
  </g>
</svg>
